<svg xmlns="http://www.w3.org/2000/svg" version="1.1" xmlns:xlink="http://www.w3.org/1999/xlink" xmlns:svgjs="http://svgjs.dev/svgjs" width="1000" height="1193" viewBox="0 0 1000 1193"><g transform="matrix(1,0,0,1,-0.05614301382507847,0.36483180428137985)"><svg viewBox="0 0 274 327" data-background-color="#fafafa" preserveAspectRatio="xMidYMid meet" height="1193" width="1000" xmlns="http://www.w3.org/2000/svg" xmlns:xlink="http://www.w3.org/1999/xlink"><g id="tight-bounds" transform="matrix(1,0,0,1,0.015383185788067522,-0.10000000000002274)"><svg viewBox="0 0 273.9676370980606 327.2" height="327.2" width="273.9676370980606"><g><svg viewBox="0 0 273.9676370980606 327.2" height="327.2" width="273.9676370980606"><g><svg viewBox="0 0 273.9676370980606 327.2" height="327.2" width="273.9676370980606"><g id="textblocktransform"><svg viewBox="0 0 273.9676370980606 327.2" height="327.2" width="273.9676370980606" id="textblock"><g><svg viewBox="0 0 273.9676370980606 327.2" height="327.2" width="273.9676370980606"><g transform="matrix(1,0,0,1,0,0)"><svg width="273.9676370980606" viewBox="31.393701553344727 -24.520103454589844 67.81490325927734 80.99137878417969" height="327.2" data-palette-color="#ff4136"><path d="M51.909 24.611c0.861 1.466 1.839 2.689 2.934 3.669 1.091 0.975 2.162 1.718 3.213 2.229v0c-0.097 0.15-0.304 0.318-0.62 0.504v0c-1.081 0.635-2.483 0.307-4.209-0.983-1.716-1.288-3.17-2.947-4.362-4.975v0c-1.128-1.92-1.556-3.582-1.284-4.987 0.278-1.408 1.36-2.667 3.244-3.775v0c2.379-1.399 6.982-3.284 13.808-5.657v0c-1.326-2.414-3.026-5.386-5.101-8.914v0l-5.595-9.401c-5.939 1.565-9.798 2.612-11.576 3.138-1.78 0.536-4.223 1.361-7.327 2.474v0c-0.426 0.157-0.712 0.21-0.859 0.157-0.147-0.053-0.341-0.244-0.581-0.575v0c-0.307-0.43-0.592-0.77-0.854-1.017-0.259-0.242-0.682-0.542-1.271-0.9v0l-0.075-0.385c2.099-0.337 4.019-0.727 5.761-1.171 1.74-0.435 4.92-1.28 9.541-2.534v0l5.857-1.541-0.152-0.258c-0.206-0.351-0.204-0.847 0.007-1.489 0.21-0.642 0.56-1.106 1.048-1.393v0c0.178-0.105 0.324-0.121 0.437-0.048 0.116 0.079 0.275 0.291 0.477 0.635v0l0.998 1.815 2.145-0.553c4.097-1.094 6.993-1.903 8.688-2.427 1.686-0.527 2.931-1.027 3.735-1.5v0c0.695-0.409 1.067-0.836 1.115-1.281 0.038-0.448-0.147-1.02-0.556-1.715v0c-0.372-0.632-0.898-1.429-1.578-2.39-0.681-0.961-1.249-1.71-1.704-2.246v0c0.195-0.3 0.389-0.588 0.583-0.865 0.184-0.278 0.4-0.49 0.647-0.635v0c0.42-0.247 0.753-0.16 0.999 0.259v0c2.679 4.163 4.369 6.742 5.07 7.738 0.707 0.992 1.123 1.594 1.248 1.807v0c0.186 0.316 0.285 0.563 0.297 0.742 0.006 0.182-0.094 0.334-0.301 0.455v0c-0.069 0.041-0.265 0.109-0.587 0.206v0l-18.552 4.768c1.185 2.265 2.988 5.459 5.41 9.58v0c1.52 2.586 3.262 5.464 5.225 8.632v0c6.458-2.195 12.98-4.053 19.565-5.572v0c0.817-0.202 1.507-0.186 2.069 0.048v0c0.901 0.414 2.22 1.344 3.959 2.788 1.744 1.442 2.894 2.634 3.448 3.577v0c0.574 0.977 0.39 1.743-0.553 2.296v0c-0.513-0.874-1.626-1.983-3.336-3.328-1.705-1.349-3.045-2.088-4.019-2.22v0c-1.078-0.163-3.538 0.25-7.379 1.241-3.836 0.986-7.806 2.145-11.912 3.475v0c-7.405 2.427-12.768 4.617-16.09 6.569v0c-0.805 0.473-1.392 0.934-1.762 1.383-0.367 0.455-0.515 1.038-0.446 1.747 0.063 0.713 0.434 1.647 1.113 2.803zM98.299 4.081c0.607 0.367 0.91 0.973 0.91 1.82v0c0 0.487-0.093 0.913-0.28 1.28-0.18 0.367-0.433 0.753-0.76 1.16v0c-1.98 2.387-4.573 4.22-7.78 5.5-3.2 1.273-6.187 2.103-8.96 2.49-2.773 0.38-5.033 0.57-6.78 0.57v0c-1.053 0-1.78-0.1-2.18-0.3-0.407-0.2-0.61-0.603-0.61-1.21v0c0-0.327 0.06-0.673 0.18-1.04v0c1.133 0.207 1.923 0.31 2.37 0.31v0c2.027 0 3.71-0.76 5.05-2.28 1.333-1.52 2.377-3.343 3.13-5.47 0.747-2.127 1.503-4.75 2.27-7.87v0c0.127-0.367 0.27-0.913 0.43-1.64v0c0-0.527-0.417-1.177-1.25-1.95-0.827-0.767-1.523-1.15-2.09-1.15v0c-0.527 0-1.357 0.333-2.49 1-1.14 0.667-2.247 1.64-3.32 2.92-1.073 1.273-1.853 2.74-2.34 4.4v0c-1.173 4.133-2.177 7.983-3.01 11.55-0.827 3.567-1.747 7.74-2.76 12.52v0c-2.107 9.887-3.97 17.99-5.59 24.31v0c-0.287 1.093-0.653 1.913-1.1 2.46-0.44 0.547-0.967 0.933-1.58 1.16-0.607 0.22-1.597 0.47-2.97 0.75v0c-1.747 0.327-3.327 0.693-4.74 1.1v0l-0.67-0.31c2.267-1.007 3.927-1.977 4.98-2.91 1.053-0.933 1.843-2.08 2.37-3.44 0.527-1.353 1.197-3.65 2.01-6.89v0c5.187-20.38 9.803-39.12 13.85-56.22v0c0.08-0.367 0.203-0.62 0.37-0.76 0.16-0.14 0.363-0.25 0.61-0.33v0c0.4-0.167 0.883-0.38 1.45-0.64 0.573-0.267 0.96-0.42 1.16-0.46v0c0.12 0.04 0.303 0.223 0.55 0.55v0c-0.087 0.28-0.19 0.503-0.31 0.67v0c-0.32 0.727-1.13 3.34-2.43 7.84v0c-0.367 1.213-0.59 1.963-0.67 2.25v0c1.093-1.26 2.4-2.377 3.92-3.35 1.52-0.973 2.727-1.46 3.62-1.46v0c0.727 0 1.577 0.337 2.55 1.01 0.973 0.667 1.803 1.467 2.49 2.4 0.693 0.933 1.04 1.783 1.04 2.55v0l-0.73 2.8c-0.607 2.467-1.187 4.533-1.74 6.2-0.547 1.66-1.347 3.26-2.4 4.8-1.053 1.54-2.39 2.773-4.01 3.7v0c2.393-0.32 4.52-0.803 6.38-1.45 1.867-0.653 3.773-1.677 5.72-3.07 1.94-1.4 3.987-3.357 6.14-5.87z" opacity="1" transform="matrix(1,0,0,1,0,0)" fill="#ff4136" class="undefined-text-0" data-fill-palette-color="primary" id="text-0"></path></svg></g></svg></g></svg></g></svg></g><g></g></svg></g><defs></defs></svg><rect width="273.9676370980606" height="327.2" fill="none" stroke="none" visibility="hidden"></rect></g></svg></g></svg>